<svg width="48" height="48" viewBox="0 0 48 48" fill="none" xmlns="http://www.w3.org/2000/svg">
<path d="M26 42V38H34V42C34 42.5667 33.8084 43.0417 33.425 43.425C33.0417 43.8083 32.5667 44 32 44H28C27.4334 44 26.9584 43.8083 26.575 43.425C26.1917 43.0417 26 42.5667 26 42ZM14 42V36H3.65003C2.85003 36 2.2667 35.65 1.90003 34.95C1.53337 34.25 1.5667 33.5667 2.00003 32.9L7.70003 24C6.93337 24 6.35837 23.6583 5.97503 22.975C5.5917 22.2917 5.63337 21.6167 6.10003 20.95L16.35 6.35C16.55 6.08333 16.8 5.875 17.1 5.725C17.4 5.575 17.7 5.5 18 5.5C18.3 5.5 18.6 5.575 18.9 5.725C19.2 5.875 19.45 6.08333 19.65 6.35L29.9 20.95C30.3667 21.6167 30.4084 22.2917 30.025 22.975C29.6417 23.6583 29.0667 24 28.3 24L34.05 32.9C34.4834 33.5667 34.5167 34.25 34.15 34.95C33.7834 35.65 33.2 36 32.4 36H22V42C22 42.5667 21.8084 43.0417 21.425 43.425C21.0417 43.8083 20.5667 44 20 44H16C15.4334 44 14.9584 43.8083 14.575 43.425C14.1917 43.0417 14 42.5667 14 42ZM38.5 36L32 26C32.8 26 33.3917 25.6417 33.775 24.925C34.1584 24.2083 34.1167 23.5167 33.65 22.85L25.25 10.85L28.35 6.35C28.55 6.08333 28.8 5.875 29.1 5.725C29.4 5.575 29.7 5.5 30 5.5C30.3 5.5 30.6 5.575 30.9 5.725C31.2 5.875 31.45 6.08333 31.65 6.35L41.9 20.95C42.3667 21.6167 42.4084 22.2917 42.025 22.975C41.6417 23.6583 41.0667 24 40.3 24L46 32.9C46.4334 33.5667 46.4667 34.25 46.1 34.95C45.7334 35.65 45.15 36 44.35 36H38.5Z" fill="#2F3A2E"/>
</svg>
