<svg width="56" height="90" viewBox="0 0 56 90" fill="none" xmlns="http://www.w3.org/2000/svg">
<rect width="56" height="56" rx="28" fill="white" fill-opacity="0.15"/>
<rect x="0.5" y="0.5" width="55" height="55" rx="27.5" stroke="white" stroke-opacity="0.15"/>
<path d="M29 37V39H27V37H19C18.4477 37 18 36.5523 18 36V22H38V36C38 36.5523 37.5523 37 37 37H29ZM20 35H36V24H20V35ZM29 26H34V28H29V26ZM29 30H34V32H29V30ZM25 26V29H28C28 30.6569 26.6569 32 25 32C23.3432 32 22 30.6569 22 29C22 27.3431 23.3432 26 25 26ZM18 19H38V21H18V19Z" fill="white"/>
<path d="M44.9999 20.1663C50.0625 20.1663 54.1666 16.0622 54.1666 10.9997C54.1666 5.93706 50.0625 1.83301 44.9999 1.83301C39.9373 1.83301 35.8333 5.93706 35.8333 10.9997C35.8333 16.0622 39.9373 20.1663 44.9999 20.1663ZM50.0023 8.66869L44.0833 14.5877L40.2267 10.7312L41.5231 9.43483L44.0833 11.995L48.7059 7.37232L50.0023 8.66869Z" fill="white"/>
<path opacity="0.8" d="M5.296 83.24C4.46933 83.24 3.72267 83.0987 3.056 82.816C2.39467 82.528 1.848 82.12 1.416 81.592C0.989333 81.0587 0.712 80.4267 0.584 79.696L2.328 79.432C2.504 80.136 2.872 80.6853 3.432 81.08C3.992 81.4693 4.64533 81.664 5.392 81.664C5.856 81.664 6.28267 81.592 6.672 81.448C7.06133 81.2987 7.37333 81.088 7.608 80.816C7.848 80.5387 7.968 80.208 7.968 79.824C7.968 79.616 7.93067 79.432 7.856 79.272C7.78667 79.112 7.688 78.9733 7.56 78.856C7.43733 78.7333 7.28533 78.6293 7.104 78.544C6.928 78.4533 6.73333 78.376 6.52 78.312L3.568 77.44C3.28 77.3547 2.98667 77.2453 2.688 77.112C2.38933 76.9733 2.11467 76.7947 1.864 76.576C1.61867 76.352 1.41867 76.0773 1.264 75.752C1.10933 75.4213 1.032 75.0213 1.032 74.552C1.032 73.8427 1.21333 73.2427 1.576 72.752C1.944 72.256 2.44 71.8827 3.064 71.632C3.688 71.376 4.38667 71.248 5.16 71.248C5.93867 71.2587 6.63467 71.3973 7.248 71.664C7.86667 71.9307 8.37867 72.3147 8.784 72.816C9.19467 73.312 9.47733 73.9147 9.632 74.624L7.84 74.928C7.76 74.496 7.58933 74.1253 7.328 73.816C7.06667 73.5013 6.74667 73.2613 6.368 73.096C5.98933 72.9253 5.57867 72.8373 5.136 72.832C4.70933 72.8213 4.31733 72.8853 3.96 73.024C3.608 73.1627 3.32533 73.3573 3.112 73.608C2.904 73.8587 2.8 74.1467 2.8 74.472C2.8 74.792 2.89333 75.0507 3.08 75.248C3.26667 75.4453 3.496 75.6027 3.768 75.72C4.04533 75.832 4.32 75.9253 4.592 76L6.72 76.6C6.98667 76.6747 7.288 76.776 7.624 76.904C7.96533 77.0267 8.29333 77.2 8.608 77.424C8.928 77.648 9.192 77.9467 9.4 78.32C9.608 78.688 9.712 79.152 9.712 79.712C9.712 80.2933 9.59467 80.8053 9.36 81.248C9.12533 81.6853 8.80267 82.0533 8.392 82.352C7.98667 82.6453 7.51733 82.8667 6.984 83.016C6.45067 83.1653 5.888 83.24 5.296 83.24ZM16.2009 83C15.6569 83.1067 15.1235 83.152 14.6009 83.136C14.0782 83.12 13.6115 83.0187 13.2009 82.832C12.7902 82.6453 12.4809 82.352 12.2729 81.952C12.0862 81.5947 11.9849 81.232 11.9689 80.864C11.9582 80.4907 11.9529 80.0693 11.9529 79.6V71.96H13.6329V79.52C13.6329 79.8667 13.6355 80.168 13.6409 80.424C13.6515 80.68 13.7075 80.896 13.8089 81.072C14.0009 81.4027 14.3049 81.592 14.7209 81.64C15.1422 81.6827 15.6355 81.664 16.2009 81.584V83ZM10.2969 75.704V74.36H16.2009V75.704H10.2969ZM21.3039 83.24C20.4452 83.24 19.6905 83.0533 19.0399 82.68C18.3945 82.3013 17.8905 81.776 17.5279 81.104C17.1705 80.4267 16.9919 79.6427 16.9919 78.752C16.9919 77.808 17.1679 76.9893 17.5199 76.296C17.8772 75.6027 18.3732 75.0667 19.0079 74.688C19.6425 74.3093 20.3812 74.12 21.2239 74.12C22.1039 74.12 22.8532 74.3253 23.4719 74.736C24.0905 75.1413 24.5519 75.72 24.8559 76.472C25.1652 77.224 25.2879 78.1173 25.2239 79.152H23.5519V78.544C23.5412 77.5413 23.3492 76.8 22.9759 76.32C22.6079 75.84 22.0452 75.6 21.2879 75.6C20.4505 75.6 19.8212 75.864 19.3999 76.392C18.9785 76.92 18.7679 77.6827 18.7679 78.68C18.7679 79.6293 18.9785 80.3653 19.3999 80.888C19.8212 81.4053 20.4292 81.664 21.2239 81.664C21.7465 81.664 22.1972 81.5467 22.5759 81.312C22.9599 81.072 23.2585 80.7307 23.4719 80.288L25.1119 80.808C24.7759 81.5813 24.2665 82.1813 23.5839 82.608C22.9012 83.0293 22.1412 83.24 21.3039 83.24ZM18.2239 79.152V77.848H24.3919V79.152H18.2239ZM30.6804 83.24C29.8537 83.24 29.1604 83.04 28.6004 82.64C28.0404 82.2347 27.6164 81.688 27.3284 81C27.0404 80.312 26.8964 79.536 26.8964 78.672C26.8964 77.808 27.0377 77.032 27.3204 76.344C27.6084 75.656 28.0297 75.1147 28.5844 74.72C29.1444 74.32 29.8324 74.12 30.6484 74.12C31.459 74.12 32.1577 74.32 32.7444 74.72C33.3364 75.1147 33.7924 75.656 34.1124 76.344C34.4324 77.0267 34.5924 77.8027 34.5924 78.672C34.5924 79.536 34.4324 80.3147 34.1124 81.008C33.7977 81.696 33.347 82.24 32.7604 82.64C32.179 83.04 31.4857 83.24 30.6804 83.24ZM26.6164 86.84V74.36H28.1044V80.576H28.2964V86.84H26.6164ZM30.4484 81.728C30.9817 81.728 31.4217 81.592 31.7684 81.32C32.1204 81.048 32.3817 80.6827 32.5524 80.224C32.7284 79.76 32.8164 79.2427 32.8164 78.672C32.8164 78.1067 32.7284 77.5947 32.5524 77.136C32.3817 76.6773 32.1177 76.312 31.7604 76.04C31.403 75.768 30.947 75.632 30.3924 75.632C29.8697 75.632 29.4377 75.76 29.0964 76.016C28.7604 76.272 28.5097 76.6293 28.3444 77.088C28.1844 77.5467 28.1044 78.0747 28.1044 78.672C28.1044 79.2693 28.1844 79.7973 28.3444 80.256C28.5044 80.7147 28.7577 81.0747 29.1044 81.336C29.451 81.5973 29.899 81.728 30.4484 81.728ZM42.8579 83.216C42.2872 83.216 41.7512 83.1093 41.2499 82.896C40.7485 82.6773 40.3139 82.368 39.9459 81.968C39.5832 81.568 39.3192 81.096 39.1539 80.552L40.7699 80.104C40.9245 80.6 41.1939 80.9813 41.5779 81.248C41.9619 81.5093 42.3885 81.6373 42.8579 81.632C43.2792 81.6267 43.6499 81.528 43.9699 81.336C44.2899 81.144 44.5405 80.8853 44.7219 80.56C44.9032 80.2293 44.9939 79.8507 44.9939 79.424C44.9939 78.784 44.7939 78.256 44.3939 77.84C43.9992 77.424 43.4819 77.216 42.8419 77.216C42.6605 77.216 42.4739 77.2427 42.2819 77.296C42.0952 77.3493 41.9192 77.4187 41.7539 77.504L40.9699 76.184L45.0339 72.592L45.2099 73.072H39.6099V71.48H46.5379V73.072L43.1619 76.32L43.1459 75.776C43.8712 75.776 44.5005 75.9387 45.0339 76.264C45.5672 76.584 45.9779 77.0213 46.2659 77.576C46.5592 78.1253 46.7059 78.7413 46.7059 79.424C46.7059 80.16 46.5325 80.8133 46.1859 81.384C45.8445 81.9547 45.3832 82.4027 44.8019 82.728C44.2259 83.0533 43.5779 83.216 42.8579 83.216Z" fill="white"/>
</svg>
